<svg width="15" height="13" viewBox="0 0 15 13" fill="none" xmlns="http://www.w3.org/2000/svg">
<path d="M5.23586 12.1734C4.80086 12.1734 4.38886 11.9704 4.12486 11.6204L0.551858 6.89936C0.441391 6.75356 0.360743 6.58742 0.314525 6.41044C0.268307 6.23345 0.257424 6.04909 0.2825 5.8679C0.307575 5.68671 0.368117 5.51223 0.460663 5.35445C0.55321 5.19667 0.675947 5.05868 0.821858 4.94836C0.967717 4.83758 1.134 4.75668 1.31119 4.71029C1.48837 4.6639 1.67297 4.65293 1.8544 4.67801C2.03583 4.70309 2.21052 4.76373 2.36847 4.85646C2.52643 4.94918 2.66453 5.07216 2.77486 5.21836L5.12586 8.32236L12.2694 0.674676C12.4654 0.361276 12.7777 0.138423 13.1379 0.0550001C13.498 -0.0284231 13.8765 0.0343954 14.1904 0.229676C14.8434 0.635677 15.0444 1.49568 14.6364 2.14968L6.41986 11.5154C6.30064 11.7076 6.13631 11.8678 5.94113 11.9821C5.74595 12.0964 5.52583 12.1614 5.29986 12.1714C5.27786 12.1734 5.25786 12.1734 5.23586 12.1734Z" fill="black"/>
</svg>
