<svg width="48" height="48" viewBox="0 0 48 48" fill="#E14A4A" xmlns="http://www.w3.org/2000/svg">
<path d="M24.094 47.906C37.149 47.906 48 37.078 48 24C48 10.945 37.125 0.0939941 24.07 0.0939941C10.993 0.0939941 0.189003 10.945 0.189003 24C0.189003 37.078 11.016 47.906 24.094 47.906ZM24.095 43.922C13.031 43.922 4.194 35.062 4.194 24C4.194 12.96 13.007 4.07799 24.07 4.07799C35.109 4.07799 43.991 12.961 44.015 24C44.038 35.063 35.132 43.922 24.093 43.922M24.07 28.242C25.194 28.242 25.827 27.609 25.85 26.391L26.202 14.016C26.226 12.82 25.288 11.93 24.046 11.93C22.78 11.93 21.89 12.797 21.913 13.992L22.218 26.391C22.241 27.586 22.898 28.242 24.07 28.242ZM24.07 35.859C25.405 35.859 26.6 34.781 26.6 33.422C26.6 32.039 25.429 30.984 24.07 30.984C22.687 30.984 21.538 32.062 21.538 33.422C21.538 34.758 22.71 35.859 24.07 35.859Z" fill="#E14A4A"/>
</svg>
