<svg width="52" height="48" viewBox="0 0 52 48" fill="none" xmlns="http://www.w3.org/2000/svg">
<g filter="url(#filter0_d_94_19)">
<path d="M26 36C37.046 36 46 24 46 24C46 24 37.046 12 26 12C14.954 12 6 24 6 24C6 24 14.954 36 26 36Z" stroke="black" stroke-width="4" stroke-linejoin="round"/>
<path d="M26 29C27.3261 29 28.5979 28.4732 29.5355 27.5355C30.4732 26.5979 31 25.3261 31 24C31 22.6739 30.4732 21.4021 29.5355 20.4645C28.5979 19.5268 27.3261 19 26 19C24.6739 19 23.4021 19.5268 22.4645 20.4645C21.5268 21.4021 21 22.6739 21 24C21 25.3261 21.5268 26.5979 22.4645 27.5355C23.4021 28.4732 24.6739 29 26 29Z" stroke="black" stroke-width="4" stroke-linejoin="round"/>
</g>
<defs>
<filter id="filter0_d_94_19" x="-2" y="0" width="56" height="56" filterUnits="userSpaceOnUse" color-interpolation-filters="sRGB">
<feFlood flood-opacity="0" result="BackgroundImageFix"/>
<feColorMatrix in="SourceAlpha" type="matrix" values="0 0 0 0 0 0 0 0 0 0 0 0 0 0 0 0 0 0 127 0" result="hardAlpha"/>
<feOffset dy="4"/>
<feGaussianBlur stdDeviation="2"/>
<feComposite in2="hardAlpha" operator="out"/>
<feColorMatrix type="matrix" values="0 0 0 0 0 0 0 0 0 0 0 0 0 0 0 0 0 0 0.25 0"/>
<feBlend mode="normal" in2="BackgroundImageFix" result="effect1_dropShadow_94_19"/>
<feBlend mode="normal" in="SourceGraphic" in2="effect1_dropShadow_94_19" result="shape"/>
</filter>
</defs>
</svg>
