<svg width="48" height="48" viewBox="0 0 48 48" fill="none" xmlns="http://www.w3.org/2000/svg">
<path d="M14.5 14.5C9.62548 17.6255 4 24 4 24C4 24 12.954 36 24 36C25.37 36 27.5 36 32 34M20.032 12.5C21.314 12.182 22.642 12 24 12C35.046 12 44 24 44 24C44 24 41.761 27 38.142 30M20.314 20.621C19.4297 21.5808 18.9558 22.8484 18.9934 24.1529C19.0311 25.4574 19.5772 26.6955 20.5153 27.6028C21.4534 28.5101 22.7091 29.0147 24.0141 29.0087C25.3192 29.0028 26.5702 28.4868 27.5 27.571M42 42L6 6" stroke="black" stroke-width="4" stroke-linecap="round" stroke-linejoin="round"/>
</svg>
